<svg version="1.2" xmlns="http://www.w3.org/2000/svg" viewBox="0 0 1365 768" width="1365" height="768">
	<style>
		.s0 { fill: #010101 } 
		.s1 { fill: #020202 } 
		.s2 { fill: #373737 } 
	</style>
	<g id="Layer 1">
		<g id="Folder 2">
			<path class="s0" d="m564.88 132.47q6.16 5.34 12.25 10.78c2.13 1.79 4.26 3.58 6.45 5.42 54.21 46.79 82.48 113.65 111.73 177.28 9.93 21.49 20.39 42.66 31.11 63.77 9.25 18.34 17.84 36.93 26.29 55.65 9.25 20.32 18.31 39.49 32.34 57 1.66 2.09 3.33 4.18 5.05 6.32 21.91 25.82 56.13 50.32 90.82 53.27 58.89 2.4 105.67-12.79 150.17-52.25 10.72-10.34 19.94-21.75 29.25-33.35 6.43-7.74 13.17-15.09 20.04-22.42 10.76-11.48 20.87-23.24 30.63-35.59 5.21-6.24 10.8-11.9 16.63-17.57 8.68 3.57 13.51 8.62 19.63 15.65 1.87 2.13 3.74 4.26 5.66 6.45 1.79 2.06 3.58 4.13 5.42 6.25 1.42 1.6 2.84 3.2 4.31 4.85 9.55 10.75 18.64 21.85 27.72 33 9.34 11.39 18.89 22.61 28.44 33.84q9.79 11.54 19.55 23.1 8.21 9.73 16.51 19.37c49.97 58.17 49.97 58.17 48.49 92.03-2.73 19.63-11.8 36.12-26.89 48.98-26.41 16.45-52.02 20.47-82.49 13.99-51.12-12.23-87.52-44.63-119.72-84.91-6.47-8-13.15-15.8-19.88-23.59-10.44-12.1-20.64-24.36-30.63-36.85-5.23-6.18-10.83-11.84-16.62-17.49-9.21 9.08-18.09 18.42-26.88 27.91q-2.04 2.2-4.14 4.47c-10.61 11.48-20.98 23.14-31.14 35.03-1.71 2-1.71 2-3.45 4.04q-1.78 2.09-3.61 4.23-5.58 6.52-11.19 13.01-6.28 7.3-12.4 14.73c-22.31 26.39-49.72 43.23-82.03 54.88-2.07 0.8-4.14 1.6-6.27 2.43-35.71 11.95-76.59 6.07-109.79-9.96-14.82-7.57-27.56-16.75-39.87-27.91-1.77-1.57-3.53-3.14-5.35-4.76-42.16-39.74-66.1-97.72-89.94-149.61-6.02-12.99-12.61-25.62-19.32-38.26-9.46-17.82-18.54-35.79-27.46-53.88-1.24-2.51-2.48-5.03-3.76-7.61q-7.67-15.52-15.28-31.06c-27.42-55.98-51.32-97.95-111.71-121.07-32.35-8.83-69.89-2.81-98.71 13.31-32.89 21.58-53.69 50.61-62.14 89.4-1.45 11.14-1.45 22.14-1.48 33.37-0.01 2.51-0.03 5.02-0.04 7.6q-0.05 8.14-0.09 16.29-0.06 12.9-0.15 25.8-0.25 36.68-0.43 73.35-0.12 22.46-0.29 44.91-0.05 8.54-0.08 17.08-0.05 11.96-0.15 23.92c0 2.34-0.01 4.68-0.01 7.09-0.27 26.47-7.43 53.76-26.7 73.03-24.96 20.22-45.85 26.22-77.97 23.63-23.16-3.58-41.26-17.27-55.88-35.23-10.95-16.99-17.6-36.37-17.71-56.58-0.01-2.25-0.03-4.49-0.05-6.81 0-2.44-0.01-4.88-0.02-7.39-0.01-2.59-0.03-5.18-0.04-7.85q-0.07-12.88-0.1-25.75c-0.01-2.95-0.02-5.9-0.03-8.94q-0.07-21.04-0.1-42.08-0.03-24.08-0.18-48.17-0.11-21.01-0.12-42.02-0.01-8.84-0.08-17.69c-0.68-96.42 25.5-175.4 92.09-246.22 38.57-38.08 89.89-69.01 142.89-81.38 2.97-0.7 5.94-1.4 9-2.12 88.72-18.7 188.76 2.56 259.9 59.86z"/>
			<path class="s0" d="m1267.03 81.82c2.19 1.2 2.19 1.2 4.42 2.42 14.66 8.86 23.34 24.13 28.66 40.11 2.89 28.65-3.9 49.97-21.85 72.35q-5.55 6.41-11.23 12.7c-2.65 2.95-2.65 2.95-5.35 5.96q-5.29 5.86-10.6 11.7c-5.46 6.13-10.64 12.43-15.8 18.82-9.24 11.42-18.96 22.3-28.9 33.13-9.75 10.63-19.17 21.53-28.53 32.5q-3.62 4.25-7.24 8.49c-1.84 2.15-1.84 2.15-3.71 4.34-7.57 8.84-15.29 17.52-23.17 26.08-7.45 8.11-14.54 16.36-21.41 24.96-10.12 12.56-21.05 24.21-32.13 35.92-7.91 8.41-15.47 16.91-22.66 25.95-13.17 16.48-27.76 31.62-42.33 46.85q-4.66 4.93-9.2 9.97c-24.5 26.39-61.27 47.17-97.51 49.66-22.77 0.81-44.51 0.52-64.92-10.64-2.02-1.06-4.04-2.12-6.12-3.21-19.28-10.81-40.55-26.04-50.59-46.41 0.3-9.69 6.92-15.12 13.29-21.85q3.27-3.5 6.54-7.01c2.03-2.17 4.06-4.34 6.16-6.58 7.84-8.74 15.48-17.66 23.11-26.59q3.66-4.28 7.31-8.55 1.83-2.15 3.72-4.36 10.72-12.53 21.83-24.73c7.11-7.83 13.88-15.84 20.52-24.07 8.7-10.76 17.84-20.93 27.25-31.05 9.03-9.76 17.42-19.95 25.76-30.3 6.9-8.39 14.16-16.41 21.46-24.44 19.61-21.57 38.34-43.93 57.25-66.11 12.2-14.29 24.53-28.41 37.18-42.31 5.38-6.1 10.46-12.38 15.54-18.73 37.4-45.89 122.38-105.51 183.25-64.97z"/>
			<path class="s0" d="m861.55 90.84c30.09 16.3 52.69 40.4 73.89 66.93 5.94 7.22 12.17 14.08 18.54 20.92 8.58 9.3 17.12 18.63 25.4 28.2 1.76 2.02 3.53 4.04 5.35 6.12 3.51 5.84 3.51 5.84 3.78 11.49-3.91 9.13-10.2 15.23-17.11 22.26q-4.24 4.45-8.49 8.9-2.02 2.1-4.1 4.27c-10.3 10.77-19.79 22.24-29.38 33.64q-1.66 1.96-3.36 3.99-1.65 1.96-3.35 3.98c-9.23 10.91-18.77 21.48-28.43 32-6.66 7.31-13.08 14.79-19.46 22.35-9.38-3.7-15.16-10.21-21.71-17.58q-1.7-1.88-3.45-3.82c-9.09-10.14-17.7-20.65-26.24-31.26-5.51-6.66-11.26-13.04-17.12-19.4-7.78-8.46-15.23-17.05-22.44-25.99-10.9-13.5-22.53-26.22-34.26-38.99-23.45-25.57-42.17-49.47-40.99-85.68 2.3-18.11 10.36-34.86 24.45-46.63 37.59-27.34 90.04-15.59 128.48 4.3z"/>
			<path class="s1" d="m492.08 379.51c5.2 4.83 8.59 9.23 11.73 15.58q1.26 2.55 2.57 5.17 1.36 2.77 2.76 5.63c0.97 1.97 1.95 3.94 2.96 5.97q3.18 6.41 6.34 12.84 5.04 10.22 10.12 20.43 14.41 29.03 28.75 58.09 8.8 17.79 17.63 35.55 4.94 9.97 9.84 19.95c16.19 32.69 33.32 64.58 57.11 92.46 3.61 4.57 6.1 8.92 8.49 14.22-14.84 19.5-32.33 31.18-56.71 35.44-20.9 1.83-38.52 1.6-56.7-9.45-2.39-1.32-4.78-2.64-7.24-3.99-19.29-15.19-32.7-33.02-37.65-57.44-2.06-19.17-1.38-38.54-1.16-57.79q0.04-8.35 0.05-16.71 0.09-21.85 0.3-43.71c0.12-14.9 0.17-29.81 0.23-44.71q0.2-43.76 0.58-87.53z"/>
			<path class="s2" d="m1016.59 521.27c0 7.09 0 7.09-3.1 10.93-3.99 3.25-3.99 3.25-11.08 5.61-3.37 3.31-3.37 3.31-6.35 7.24-1.8 2.29-3.6 4.58-5.46 6.94-2.34-2.34-4.68-4.68-7.09-7.09 10.46-8.77 21.68-16.17 33.08-23.63z"/>
		</g>
	</g>
</svg>