<svg version="1.2" xmlns="http://www.w3.org/2000/svg" viewBox="0 0 1365 768" width="1365" height="768">
	<style>
		.s0 { fill: #010101 } 
		.s1 { fill: #020202 } 
		.s2 { fill: #373737 } 
	</style>
	<g id="Layer 1">
		<path class="s0" d="m623.81 282.44q2.61 2.26 5.19 4.56 1.34 1.13 2.73 2.3c22.94 19.8 34.91 48.1 47.29 75.03 4.2 9.09 8.63 18.06 13.16 26.99 3.92 7.76 7.56 15.63 11.13 23.56 3.92 8.59 7.75 16.71 13.69 24.12q1.05 1.32 2.14 2.68c9.27 10.92 23.75 21.29 38.44 22.54 24.92 1.02 44.72-5.41 63.56-22.11 4.53-4.38 8.44-9.21 12.38-14.12 2.72-3.28 5.57-6.39 8.48-9.49 4.55-4.86 8.83-9.84 12.96-15.06 2.21-2.64 4.58-5.04 7.04-7.44 3.68 1.51 5.72 3.65 8.31 6.63q1.18 1.34 2.4 2.73 1.13 1.3 2.29 2.64 0.9 1.01 1.82 2.05c4.05 4.55 7.89 9.25 11.73 13.97 3.96 4.82 8 9.57 12.04 14.32q4.15 4.89 8.28 9.78 3.47 4.12 6.99 8.2c21.15 24.62 21.15 24.62 20.52 38.95-1.15 8.31-4.99 15.29-11.38 20.73-11.18 6.96-22.02 8.66-34.91 5.92-21.64-5.17-37.05-18.89-50.68-35.94-2.74-3.38-5.56-6.68-8.41-9.98q-6.63-7.68-12.96-15.6c-2.22-2.61-4.59-5.01-7.04-7.4-3.9 3.85-7.66 7.8-11.37 11.81q-0.87 0.93-1.76 1.9-6.73 7.28-13.18 14.82c-0.72 0.85-0.72 0.85-1.46 1.71q-0.75 0.88-1.53 1.79-2.36 2.76-4.73 5.51-2.66 3.09-5.25 6.23c-9.44 11.17-21.05 18.3-34.72 23.23q-1.31 0.51-2.66 1.03c-15.11 5.06-32.41 2.57-46.46-4.22-6.28-3.2-11.67-7.09-16.88-11.81q-1.11-0.99-2.26-2.02c-17.85-16.81-27.98-41.36-38.07-63.32-2.55-5.49-5.34-10.84-8.18-16.19-4-7.54-7.85-15.15-11.62-22.81q-0.78-1.58-1.59-3.22-3.25-6.56-6.47-13.14c-11.6-23.7-21.72-41.46-47.28-51.25-13.69-3.73-29.58-1.19-41.78 5.64-13.92 9.13-22.72 21.42-26.3 37.84-0.61 4.71-0.61 9.37-0.62 14.12q-0.01 1.59-0.02 3.22-0.02 3.44-0.04 6.89-0.03 5.46-0.06 10.92-0.11 15.53-0.19 31.05-0.05 9.5-0.12 19-0.02 3.62-0.03 7.24-0.02 5.06-0.07 10.12 0 1.48 0 3c-0.12 11.21-3.14 22.75-11.3 30.91-10.57 8.56-19.41 11.1-33 10-9.81-1.52-17.46-7.31-23.65-14.91-4.64-7.19-7.45-15.39-7.5-23.95q-0.01-1.42-0.02-2.88 0-1.54-0.01-3.13-0.01-1.63-0.02-3.32-0.02-5.45-0.04-10.9 0-1.86-0.01-3.78-0.03-8.91-0.04-17.81-0.02-10.2-0.08-20.39-0.05-8.89-0.05-17.78-0.01-3.75-0.03-7.49c-0.29-40.81 10.79-74.24 38.97-104.21 16.33-16.12 38.05-29.21 60.48-34.45q1.88-0.44 3.81-0.9c37.55-7.91 79.89 1.09 110 25.34z"/>
		<path class="s0" d="m921 261c0.93 0.51 0.93 0.51 1.87 1.03 6.2 3.75 9.88 10.21 12.13 16.97 1.22 12.13-1.65 21.15-9.25 30.63q-2.35 2.71-4.75 5.37c-1.12 1.25-1.12 1.25-2.27 2.52q-2.23 2.48-4.48 4.95c-2.31 2.6-4.51 5.26-6.69 7.97-3.91 4.83-8.03 9.44-12.23 14.02-4.13 4.5-8.12 9.11-12.08 13.76q-1.53 1.8-3.06 3.59c-0.78 0.91-0.78 0.91-1.57 1.84q-4.81 5.6-9.81 11.04c-3.15 3.43-6.15 6.92-9.06 10.56-4.28 5.32-8.91 10.25-13.6 15.2-3.35 3.56-6.54 7.16-9.59 10.99-5.57 6.97-11.75 13.38-17.92 19.83q-1.97 2.08-3.89 4.21c-10.37 11.18-25.93 19.97-41.27 21.02-9.64 0.35-18.84 0.22-27.48-4.5q-1.28-0.67-2.59-1.36c-8.16-4.57-17.16-11.02-21.41-19.64 0.13-4.1 2.93-6.4 5.63-9.25q1.38-1.48 2.76-2.96 1.29-1.38 2.61-2.79c3.32-3.7 6.55-7.47 9.78-11.25q1.55-1.81 3.1-3.62 0.77-0.91 1.57-1.85 4.54-5.3 9.24-10.47c3.01-3.31 5.88-6.7 8.69-10.18 3.68-4.56 7.55-8.86 11.53-13.14 3.82-4.14 7.37-8.45 10.9-12.83 2.92-3.55 5.99-6.94 9.08-10.34 8.3-9.13 16.23-18.6 24.24-27.98 5.16-6.05 10.38-12.03 15.73-17.91 2.28-2.58 4.43-5.24 6.58-7.93 15.83-19.42 51.8-44.66 77.56-27.5z"/>
		<path class="s0" d="m749.38 264.82c12.73 6.9 22.3 17.1 31.27 28.33 2.52 3.05 5.15 5.95 7.85 8.85 3.63 3.94 7.25 7.88 10.75 11.94q1.12 1.27 2.27 2.59c1.48 2.47 1.48 2.47 1.6 4.86-1.66 3.87-4.32 6.45-7.25 9.42q-1.79 1.88-3.59 3.77-0.85 0.89-1.74 1.8c-4.35 4.56-8.37 9.42-12.43 14.24q-0.7 0.84-1.42 1.69-0.7 0.83-1.42 1.69c-3.91 4.62-7.94 9.09-12.03 13.54-2.82 3.1-5.54 6.26-8.24 9.46-3.97-1.56-6.42-4.32-9.19-7.44q-0.72-0.79-1.46-1.62c-3.85-4.29-7.49-8.73-11.1-13.23-2.34-2.82-4.77-5.52-7.25-8.21-3.29-3.58-6.45-7.22-9.5-11-4.61-5.71-9.54-11.1-14.5-16.5-9.92-10.82-17.85-20.94-17.35-36.27 0.98-7.66 4.39-14.75 10.35-19.73 15.91-11.57 38.11-6.6 54.38 1.82z"/>
		<path class="s1" d="m593 387c2.2 2.04 3.64 3.9 4.96 6.59q0.54 1.08 1.09 2.19 0.58 1.17 1.17 2.38 0.62 1.25 1.25 2.53 1.35 2.72 2.69 5.44 2.13 4.32 4.28 8.64 6.1 12.29 12.17 24.59 3.72 7.53 7.46 15.05 2.09 4.21 4.17 8.44c6.85 13.84 14.1 27.33 24.17 39.13 1.52 1.94 2.58 3.78 3.59 6.02-6.28 8.25-13.68 13.2-24 15-8.85 0.78-16.3 0.68-24-4q-1.51-0.83-3.06-1.69c-8.17-6.43-13.84-13.97-15.94-24.31-0.87-8.11-0.58-16.31-0.49-24.46q0.02-3.53 0.02-7.07 0.04-9.25 0.13-18.5 0.07-9.46 0.1-18.93 0.08-18.52 0.24-37.04z"/>
		<path class="s2" d="m815 447c0 3 0 3-1.31 4.63-1.69 1.37-1.69 1.37-4.69 2.37-1.43 1.4-1.43 1.4-2.69 3.06q-1.14 1.45-2.31 2.94-1.48-1.48-3-3c4.42-3.71 9.17-6.85 14-10z"/>
	</g>
</svg>